<svg width="400" height="300" xmlns="http://www.w3.org/2000/svg" viewBox="0 0 400 300">
  <rect width="100%" height="100%" fill="#18181b"/>
  <g transform="translate(100, 120) rotate(-20)">
    <!-- Layer 1 -->
    <rect x="0" y="0" width="200" height="15" fill="#22d3ee" opacity="0.9"/>
    <path d="M 0 0 L 25 -25 L 225 -25 L 200 0 Z" fill="#0891b2" opacity="0.9"/>
    <path d="M 200 0 L 225 -25 L 225 -10 L 200 15 Z" fill="#164e63" opacity="0.9"/>
    <!-- Layer 2 -->
    <rect x="0" y="40" width="200" height="15" fill="#38bdf8" opacity="0.7"/>
    <path d="M 0 40 L 25 15 L 225 15 L 200 40 Z" fill="#0ea5e9" opacity="0.7"/>
    <path d="M 200 40 L 225 15 L 225 30 L 200 55 Z" fill="#0369a1" opacity="0.7"/>
    <!-- Layer 3 -->
    <rect x="0" y="80" width="200" height="15" fill="#818cf8" opacity="0.5"/>
    <path d="M 0 80 L 25 55 L 225 55 L 200 80 Z" fill="#6366f1" opacity="0.5"/>
    <path d="M 200 80 L 225 55 L 225 70 L 200 95 Z" fill="#4338ca" opacity="0.5"/>
  </g>
  <circle cx="200" cy="150" r="120" fill="none" stroke="#22d3ee" stroke-width="2" stroke-dasharray="10, 10" opacity="0.3"/>
</svg>